<svg width="55" height="55" viewBox="0 0 55 55" fill="none" xmlns="http://www.w3.org/2000/svg">
<g clip-path="url(#clip0_23_238)">
<path fill-rule="evenodd" clip-rule="evenodd" d="M39.9094 32.9588C39.2265 32.6174 35.8783 30.9719 35.255 30.7428C34.6317 30.5159 34.1779 30.4036 33.7219 31.0865C33.2681 31.7649 31.9642 33.3003 31.5677 33.754C31.169 34.2101 30.7725 34.2651 30.0919 33.9259C29.4112 33.5821 27.2158 32.8649 24.6148 30.5457C22.5913 28.7399 21.2231 26.5101 20.8267 25.8271C20.4302 25.1465 20.7831 24.7776 21.1246 24.4384C21.4317 24.1336 21.8052 23.6432 22.1467 23.2467C22.4881 22.848 22.6004 22.5638 22.8273 22.1078C23.0565 21.654 22.9419 21.2576 22.77 20.9161C22.6004 20.5746 21.2392 17.2219 20.6708 15.8584C20.1185 14.5315 19.5571 14.7126 19.14 14.6896C18.7413 14.6713 18.2875 14.6667 17.8338 14.6667C17.38 14.6667 16.6421 14.8363 16.0187 15.5192C15.3931 16.1999 13.6354 17.8476 13.6354 21.2003C13.6354 24.5507 16.0738 27.7888 16.4152 28.2449C16.7567 28.6986 21.2163 35.5782 28.0477 38.5276C29.6748 39.2288 30.9421 39.6482 31.9298 39.9599C33.5615 40.4801 35.0465 40.4067 36.2198 40.2303C37.526 40.0355 40.2485 38.5826 40.8169 36.9921C41.3829 35.4017 41.3829 34.0382 41.2133 33.754C41.0438 33.4699 40.59 33.3003 39.9071 32.9588H39.9094ZM27.484 49.924H27.4748C23.4172 49.9248 19.4342 48.834 15.9431 46.7661L15.1181 46.2757L6.54271 48.5261L8.83208 40.1661L8.29354 39.309C6.02511 35.6982 4.82463 31.5191 4.83083 27.2549C4.83542 14.7653 14.9967 4.60402 27.4931 4.60402C33.5431 4.60402 39.231 6.96444 43.5073 11.2453C45.6165 13.3458 47.2882 15.8437 48.4258 18.5944C49.5634 21.3452 50.1443 24.2942 50.1348 27.2709C50.1302 39.7605 39.969 49.924 27.484 49.924ZM46.7615 7.9934C44.2365 5.45176 41.2322 3.4365 37.9227 2.0644C34.6132 0.692293 31.0643 -0.00937192 27.4817 6.33893e-05C12.4621 6.33893e-05 0.23375 12.2261 0.229167 27.2526C0.222207 32.0347 1.47669 36.7341 3.86604 40.8765L0 55.0001L14.4467 51.2096C18.443 53.387 22.9215 54.5279 27.4725 54.528H27.484C42.5035 54.528 54.7319 42.3019 54.7365 27.2732C54.7475 23.6919 54.0484 20.144 52.6795 16.8347C51.3106 13.5254 49.2992 10.5204 46.7615 7.9934Z" fill="black"/>
</g>
<defs>
<clipPath id="clip0_23_238">
<rect width="55" height="55" fill="white"/>
</clipPath>
</defs>
</svg>
